<svg width="960" height="720" xmlns="http://www.w3.org/2000/svg" xmlns:xlink="http://www.w3.org/1999/xlink" overflow="hidden"><defs><clipPath id="clip0"><rect x="0" y="0" width="960" height="720"/></clipPath></defs><g clip-path="url(#clip0)"><rect x="0" y="0" width="960" height="720" fill="#FFFFFF"/><rect x="530.5" y="234.5" width="249" height="281" stroke="#4472C4" stroke-width="3" stroke-miterlimit="8" fill="#FFFFFF"/><rect x="551.5" y="280.5" width="209" height="206" stroke="#4472C4" stroke-width="3" stroke-miterlimit="8" fill="#FFFFFF"/><rect x="575.5" y="345.5" width="161" height="97" stroke="#4472C4" stroke-width="3" stroke-miterlimit="8" fill="#FFFFFF"/><rect x="531.5" y="80.5001" width="249" height="86" stroke="#A5A5A5" stroke-width="3" stroke-miterlimit="8" fill="#FFFFFF"/><text fill="#525252" font-family="Calibri,Calibri_MSFontService,sans-serif" font-weight="400" font-size="24" transform="translate(548.565 116)">Literatures &amp; state-<tspan font-size="24" x="187.007" y="0">of</tspan>-<tspan font-size="24" x="37.86" y="29">the</tspan><tspan font-size="24" x="70.5267" y="29">-</tspan><tspan font-size="24" x="77.86" y="29">art review</tspan></text><rect x="530.5" y="584.5" width="249" height="85" stroke="#A5A5A5" stroke-width="3" stroke-miterlimit="8" fill="#FFFFFF"/><text fill="#525252" font-family="Calibri,Calibri_MSFontService,sans-serif" font-weight="400" font-size="24" transform="translate(543.395 620)">Frameworks/platforms <tspan font-size="24" x="30.24" y="29">experimentation </tspan></text><path d="M656.833 166.5 656.833 339.674 656.167 339.674 656.167 166.5ZM660.5 338.34 656.5 346.34 652.5 338.34Z"/><path d="M0.333333-3.57251e-07 0.333431 91.2916-0.333235 91.2916-0.333333 3.57251e-07ZM4.0001 89.9582 0.000104987 97.9582-3.9999 89.9582Z" transform="matrix(1 0 0 -1 655.5 584.458)"/><path d="M3.34135e-07-0.333333 98.0685-0.333235 98.0685 0.333432-3.34135e-07 0.333333ZM96.7351-3.9999 104.735 0.000104987 96.7351 4.0001Z" transform="matrix(-1 0 0 1 530.235 375.5)"/><path d="M105.5 375C105.5 318.391 177.134 272.5 265.5 272.5 353.866 272.5 425.5 318.391 425.5 375 425.5 431.609 353.866 477.5 265.5 477.5 177.134 477.5 105.5 431.609 105.5 375Z" stroke="#FF0000" stroke-width="3" stroke-miterlimit="8" fill="#FFFFFF" fill-rule="evenodd"/><text fill="#4472C4" font-family="Calibri,Calibri_MSFontService,sans-serif" font-weight="400" font-size="24" transform="translate(576.935 266)">DT<tspan font-size="24" x="-16.3344" y="49">Services</tspan><tspan font-size="24" x="6.46368" y="123">Requirements, </tspan><tspan font-size="24" x="57.5704" y="152">KPIs</tspan><tspan fill="#000000" font-size="24" x="92.4156" y="292">Implement</tspan><tspan fill="#000000" font-size="24" x="103.739" y="-57">Define &amp; refine</tspan><tspan fill="#FF0000" font-size="24" x="-361.457" y="43">Outcomes</tspan><tspan fill="#FF0000" font-family="Arial,Arial_MSFontService,sans-serif" font-size="19" x="-456.848" y="95">•</tspan><tspan fill="#FF0000" font-size="19" x="-426.848" y="95">Integration &amp; orchestration </tspan><tspan fill="#FF0000" font-family="Cambria Math,Cambria Math_MSFontService,sans-serif" font-size="19" x="-215.974" y="95">⇒</tspan><tspan fill="#FF0000" font-size="19" x="-195.641" y="95">RQ1 </tspan><tspan fill="#FF0000" font-family="Arial,Arial_MSFontService,sans-serif" font-size="19" x="-456.848" y="117">•</tspan><tspan fill="#FF0000" font-size="19" x="-426.848" y="117">General takeaways </tspan><tspan fill="#FF0000" font-family="Cambria Math,Cambria Math_MSFontService,sans-serif" font-size="19" x="-280.074" y="117">⇒</tspan><tspan fill="#FF0000" font-size="19" x="-259.741" y="117">RQ2</tspan><tspan fill="#FF0000" font-family="Arial,Arial_MSFontService,sans-serif" font-size="19" x="-456.848" y="139">•</tspan><tspan fill="#FF0000" font-size="19" x="-426.848" y="139">Frameworks assessment </tspan><tspan fill="#FF0000" font-family="Cambria Math,Cambria Math_MSFontService,sans-serif" font-size="19" x="-237.841" y="139">⇒</tspan><tspan fill="#FF0000" font-size="19" x="-217.508" y="139">RQ3 </tspan><tspan fill="#000000" font-size="24" x="-133.707" y="89">Induce</tspan></text></g></svg>