<svg width="960" height="720" xmlns="http://www.w3.org/2000/svg" xmlns:xlink="http://www.w3.org/1999/xlink" overflow="hidden"><defs><clipPath id="clip0"><rect x="0" y="0" width="960" height="720"/></clipPath></defs><g clip-path="url(#clip0)"><rect x="0" y="0" width="960" height="720" fill="#FFFFFF"/><rect x="123.5" y="165.5" width="148" height="371" stroke="#787878" stroke-width="1.33333" stroke-miterlimit="8" fill="#A5A5A5"/><text fill="#FFFFFF" font-family="Calibri,Calibri_MSFontService,sans-serif" font-weight="400" font-size="24" transform="translate(158.549 344)">Physical <tspan font-size="24" x="13.4267" y="29">plant</tspan></text><rect x="596.5" y="295.5" width="148" height="85" stroke="#507E32" stroke-width="1.33333" stroke-miterlimit="8" fill="#70AD47"/><text fill="#FFFFFF" font-family="Calibri,Calibri_MSFontService,sans-serif" font-weight="400" font-size="24" transform="translate(633.81 345)">Models</text><path d="M381.5 267.75 524 267.75 524 257.5 544.5 278 524 298.5 524 288.25 381.5 288.25Z" stroke="#AE5A21" stroke-width="1.33333" stroke-miterlimit="8" fill="#ED7D31" fill-rule="evenodd"/><text fill="#FFFFFF" font-family="Calibri,Calibri_MSFontService,sans-serif" font-weight="400" font-size="24" transform="translate(417.933 285)">monitor</text><path d="M421.5 486 441 466.5 441 476.25 629.5 476.25 629.5 495.75 441 495.75 441 505.5Z" stroke="#2F528F" stroke-width="1.33333" stroke-miterlimit="8" fill="#4472C4" fill-rule="evenodd"/><text fill="#FFFFFF" font-family="Calibri,Calibri_MSFontService,sans-serif" font-weight="400" font-size="24" transform="translate(461.16 493)">control/adjust<tspan fill="#000000" font-size="24" x="-46.8617" y="-238">sensors</tspan><tspan fill="#000000" font-size="24" x="-125.196" y="-39">actuators</tspan><tspan fill="#000000" font-size="24" x="-348.417" y="83">Biomanufacturing </tspan><tspan fill="#000000" font-size="24" x="-348.417" y="112">infrastructures</tspan><tspan fill="#000000" font-size="24" x="153.361" y="-89">Digital plant</tspan></text><path d="M550.5 331C550.5 274.391 604.897 228.5 672 228.5 739.103 228.5 793.5 274.391 793.5 331 793.5 387.609 739.103 433.5 672 433.5 604.897 433.5 550.5 387.609 550.5 331Z" stroke="#FF0000" stroke-width="1.33333" stroke-miterlimit="8" fill="none" fill-rule="evenodd"/><text fill="#FF0000" font-family="Calibri,Calibri_MSFontService,sans-serif" font-weight="400" font-size="24" transform="translate(594.855 277)">Digital model</text><path d="M352.5 305C352.5 216.358 465.548 144.5 605 144.5 744.452 144.5 857.5 216.358 857.5 305 857.5 393.642 744.452 465.5 605 465.5 465.548 465.5 352.5 393.642 352.5 305Z" stroke="#FF0000" stroke-width="1.33333" stroke-miterlimit="8" fill="none" fill-rule="evenodd"/><text fill="#FF0000" font-family="Calibri,Calibri_MSFontService,sans-serif" font-weight="400" font-size="24" transform="translate(535.966 207)">Digital shadow</text><path d="M300.5 351C300.5 222.042 433.471 117.5 597.5 117.5 761.529 117.5 894.5 222.042 894.5 351 894.5 479.959 761.529 584.5 597.5 584.5 433.471 584.5 300.5 479.959 300.5 351Z" stroke="#FF0000" stroke-width="1.33333" stroke-miterlimit="8" fill="none" fill-rule="evenodd"/><text fill="#FF0000" font-family="Calibri,Calibri_MSFontService,sans-serif" font-weight="400" font-size="24" transform="translate(594.855 542)">Digital twin</text></g></svg>