<svg width="960" height="720" xmlns="http://www.w3.org/2000/svg" xmlns:xlink="http://www.w3.org/1999/xlink" overflow="hidden"><defs><clipPath id="clip0"><rect x="0" y="0" width="960" height="720"/></clipPath></defs><g clip-path="url(#clip0)"><rect x="0" y="0" width="960" height="720" fill="#FFFFFF"/><text fill="#898989" font-family="Calibri,Calibri_MSFontService,sans-serif" font-weight="400" font-size="16" transform="translate(876.1 692)">3</text><path d="M391.5 225.167C391.5 216.514 398.514 209.5 407.167 209.5L521.833 209.5C530.486 209.5 537.5 216.514 537.5 225.167L537.5 287.833C537.5 296.486 530.486 303.5 521.833 303.5L407.167 303.5C398.514 303.5 391.5 296.486 391.5 287.833Z" stroke="#FFFFFF" stroke-width="1.33333" stroke-miterlimit="8" fill="#4472C4" fill-rule="evenodd"/><text fill="#FFFFFF" font-family="Calibri,Calibri_MSFontService,sans-serif" font-weight="400" font-size="29" transform="translate(421.406 264)">Service</text><path d="M538.542 280.33C575.654 307.082 595.387 351.819 590.119 397.263" stroke="#4472C4" stroke-width="0.666667" stroke-miterlimit="8" fill="none" fill-rule="evenodd"/><path d="M501.5 414.334C501.5 405.589 508.589 398.5 517.334 398.5L630.666 398.5C639.411 398.5 646.5 405.589 646.5 414.334L646.5 477.666C646.5 486.411 639.411 493.5 630.666 493.5L517.334 493.5C508.589 493.5 501.5 486.411 501.5 477.666Z" stroke="#FFFFFF" stroke-width="1.33333" stroke-miterlimit="8" fill="#4472C4" fill-rule="evenodd"/><text fill="#FFFFFF" font-family="Calibri,Calibri_MSFontService,sans-serif" font-weight="400" font-size="29" transform="translate(533.688 437)">Virtual <tspan font-size="29" x="5.11334" y="33">entity</tspan></text><path d="M524.85 493.722C487.344 514.038 442.115 514.038 404.609 493.722" stroke="#4472C4" stroke-width="0.666667" stroke-miterlimit="8" fill="none" fill-rule="evenodd"/><path d="M282.5 414.334C282.5 405.589 289.589 398.5 298.334 398.5L412.666 398.5C421.411 398.5 428.5 405.589 428.5 414.334L428.5 477.666C428.5 486.411 421.411 493.5 412.666 493.5L298.334 493.5C289.589 493.5 282.5 486.411 282.5 477.666Z" stroke="#FFFFFF" stroke-width="1.33333" stroke-miterlimit="8" fill="#4472C4" fill-rule="evenodd"/><text fill="#FFFFFF" font-family="Calibri,Calibri_MSFontService,sans-serif" font-weight="400" font-size="29" transform="translate(307.775 437)">Physical <tspan font-size="29" x="12.3867" y="33">entity</tspan></text><path d="M339.34 397.263C334.072 351.819 353.805 307.082 390.917 280.33" stroke="#4472C4" stroke-width="0.666667" stroke-miterlimit="8" fill="none" fill-rule="evenodd"/><path d="M414.5 360.5C414.5 345.036 438.229 332.5 467.5 332.5 496.771 332.5 520.5 345.036 520.5 360.5 520.5 375.964 496.771 388.5 467.5 388.5 438.229 388.5 414.5 375.964 414.5 360.5Z" stroke="#AE5A21" stroke-width="1.33333" stroke-miterlimit="8" fill="#ED7D31" fill-rule="evenodd"/><text fill="#FFFFFF" font-family="Calibri,Calibri_MSFontService,sans-serif" font-weight="400" font-size="27" transform="translate(441.623 369)">D<tspan font-size="27" x="16.3333" y="0">ata</tspan><tspan fill="#000000" font-size="24" x="129.143" y="-65">C</tspan><tspan fill="#000000" font-size="24" x="141.977" y="-65">onnections</tspan></text><path d="M467.5 293.5 467.5 332.123" stroke="#4472C4" stroke-width="1.33333" stroke-miterlimit="8" fill="none" fill-rule="evenodd"/><path d="M504.5 380.5 524.378 427.322" stroke="#4472C4" stroke-width="1.33333" stroke-miterlimit="8" fill="none" fill-rule="evenodd"/><path d="M0 0 9.73365 31.5012" stroke="#4472C4" stroke-width="1.33333" stroke-miterlimit="8" fill="none" fill-rule="evenodd" transform="matrix(-1 0 0 1 430.234 380.5)"/></g></svg>