<svg width="960" height="720" xmlns="http://www.w3.org/2000/svg" xmlns:xlink="http://www.w3.org/1999/xlink" overflow="hidden"><defs><clipPath id="clip0"><rect x="0" y="0" width="960" height="720"/></clipPath><clipPath id="clip1"><rect x="74" y="473" width="60" height="60"/></clipPath><clipPath id="clip2"><rect x="74" y="473" width="60" height="60"/></clipPath><clipPath id="clip3"><rect x="74" y="473" width="60" height="60"/></clipPath><clipPath id="clip4"><rect x="786" y="407" width="60" height="59"/></clipPath><clipPath id="clip5"><rect x="786" y="407" width="60" height="59"/></clipPath><clipPath id="clip6"><rect x="786" y="407" width="60" height="59"/></clipPath><clipPath id="clip7"><rect x="780" y="542" width="60" height="60"/></clipPath><clipPath id="clip8"><rect x="780" y="542" width="60" height="60"/></clipPath><clipPath id="clip9"><rect x="780" y="542" width="60" height="60"/></clipPath></defs><g clip-path="url(#clip0)"><rect x="0" y="0" width="960" height="720" fill="#FFFFFF"/><rect x="528" y="146" width="388" height="534" fill="#A6A6A6"/><rect x="356" y="146" width="173" height="534" fill="#BFBFBF"/><rect x="20" y="146" width="336" height="535" fill="#D9D9D9"/><text fill="#898989" font-family="Calibri,Calibri_MSFontService,sans-serif" font-weight="400" font-size="12" transform="translate(872.267 690)">79</text><rect x="333.5" y="154.5" width="98" height="47" stroke="#2F528F" stroke-width="1.33333" stroke-miterlimit="8" fill="#4472C4"/><text fill="#FFFFFF" font-family="Calibri,Calibri_MSFontService,sans-serif" font-weight="400" font-size="24" transform="translate(344.472 185)">Model1 </text><rect x="460.5" y="154.5" width="98" height="47" stroke="#2F528F" stroke-width="1.33333" stroke-miterlimit="8" fill="#4472C4"/><text fill="#FFFFFF" font-family="Calibri,Calibri_MSFontService,sans-serif" font-weight="400" font-size="24" transform="translate(471.583 185)">Model2 </text><rect x="333.5" y="229.5" width="98" height="47" stroke="#2F528F" stroke-width="1.33333" stroke-miterlimit="8" fill="#4472C4"/><text fill="#FFFFFF" font-family="Calibri,Calibri_MSFontService,sans-serif" font-weight="400" font-size="24" transform="translate(352.722 260)">FMU1 </text><rect x="460.5" y="230.5" width="98" height="47" stroke="#2F528F" stroke-width="1.33333" stroke-miterlimit="8" fill="#4472C4"/><text fill="#FFFFFF" font-family="Calibri,Calibri_MSFontService,sans-serif" font-weight="400" font-size="24" transform="translate(479.833 261)">FMU2 </text><rect x="366.5" y="463.5" width="154" height="80" stroke="#AE5A21" stroke-width="1.33333" stroke-miterlimit="8" fill="#ED7D31"/><text fill="#FFFFFF" font-family="Calibri,Calibri_MSFontService,sans-serif" font-weight="400" font-size="19" transform="translate(404.762 498)">Ptolemy II<tspan font-size="19" x="-21.9867" y="23">(Actor</tspan><tspan font-size="19" x="24.8333" y="23">-</tspan><tspan font-size="19" x="30.5" y="23">Director)</tspan></text><rect x="326.5" y="585.5" width="233" height="79" stroke="#507E32" stroke-width="1.33333" stroke-miterlimit="8" fill="#70AD47"/><text fill="#FFFFFF" font-family="Calibri,Calibri_MSFontService,sans-serif" font-weight="400" font-size="24" transform="translate(407.956 632)">Targets</text><rect x="85.5001" y="355.5" width="111" height="67" stroke="#2F528F" stroke-width="1.33333" stroke-miterlimit="8" fill="#4472C4"/><text fill="#FFFFFF" font-family="Calibri,Calibri_MSFontService,sans-serif" font-weight="400" font-size="24" transform="translate(113.858 382)">M2M<tspan font-size="24" x="-1.55333" y="29">Client </tspan></text><rect x="209.5" y="355.5" width="110" height="67" stroke="#2F528F" stroke-width="1.33333" stroke-miterlimit="8" fill="#4472C4"/><text fill="#FFFFFF" font-family="Calibri,Calibri_MSFontService,sans-serif" font-weight="400" font-size="24" transform="translate(237.413 382)">M2M<tspan font-size="24" x="-1.55333" y="29">Client </tspan></text><rect x="139.5" y="591.5" width="110" height="67" stroke="#507E32" stroke-width="1.33333" stroke-miterlimit="8" fill="#70AD47"/><text fill="#FFFFFF" font-family="Calibri,Calibri_MSFontService,sans-serif" font-weight="400" font-size="24" transform="translate(167.413 617)">M2M<tspan font-size="24" x="-1.55333" y="29">Client </tspan></text><rect x="102.5" y="461.5" width="184" height="79" stroke="#AE5A21" stroke-width="1.33333" stroke-miterlimit="8" fill="#ED7D31"/><text fill="#FFFFFF" font-family="Calibri,Calibri_MSFontService,sans-serif" font-weight="400" font-size="19" transform="translate(146.833 495)">M2M<tspan font-size="19" x="45.6667" y="0">Server</tspan><tspan font-size="19" x="-1.33333" y="23">(rule engine)</tspan></text><g clip-path="url(#clip1)"><g clip-path="url(#clip2)"><g clip-path="url(#clip3)"><path d="M121.5 484.25C121.5 487.011 113.665 489.25 104 489.25 94.335 489.25 86.5 487.011 86.5 484.25 86.5 481.489 94.335 479.25 104 479.25 113.665 479.25 121.5 481.489 121.5 484.25Z"/><path d="M116.5 496.75C115.75 496.75 115.25 496.25 115.25 495.5 115.25 494.75 115.75 494.25 116.5 494.25 117.25 494.25 117.75 494.75 117.75 495.5 117.75 496.25 117.25 496.75 116.5 496.75ZM104 491.75C94.375 491.75 86.5 489.5 86.5 486.75L86.5 496.75C86.5 499.5 94.375 501.75 104 501.75 113.625 501.75 121.5 499.5 121.5 496.75L121.5 486.75C121.5 489.5 113.625 491.75 104 491.75Z"/><path d="M116.5 509.25C115.75 509.25 115.25 508.75 115.25 508 115.25 507.25 115.75 506.75 116.5 506.75 117.25 506.75 117.75 507.25 117.75 508 117.75 508.75 117.25 509.25 116.5 509.25ZM104 504.25C94.375 504.25 86.5 502 86.5 499.25L86.5 509.25C86.5 512 94.375 514.25 104 514.25 113.625 514.25 121.5 512 121.5 509.25L121.5 499.25C121.5 502 113.625 504.25 104 504.25Z"/><path d="M116.5 521.75C115.75 521.75 115.25 521.25 115.25 520.5 115.25 519.75 115.75 519.25 116.5 519.25 117.25 519.25 117.75 519.75 117.75 520.5 117.75 521.25 117.25 521.75 116.5 521.75ZM104 516.75C94.375 516.75 86.5 514.5 86.5 511.75L86.5 521.75C86.5 524.5 94.375 526.75 104 526.75 113.625 526.75 121.5 524.5 121.5 521.75L121.5 511.75C121.5 514.5 113.625 516.75 104 516.75Z"/></g></g></g><rect x="651.5" y="307.5" width="128" height="62" stroke="#AE5A21" stroke-width="1.33333" stroke-miterlimit="8" fill="#ED7D31"/><text fill="#FFFFFF" font-family="Calibri,Calibri_MSFontService,sans-serif" font-weight="400" font-size="19" transform="translate(662.225 333)">Co<tspan font-size="19" x="19.8334" y="0">-</tspan><tspan font-size="19" x="25.5" y="0">simulation </tspan><tspan font-size="19" x="19.7467" y="23">planning</tspan></text><rect x="620.5" y="530.5" width="190" height="80" stroke="#AE5A21" stroke-width="1.33333" stroke-miterlimit="8" fill="#ED7D31"/><text fill="#FFFFFF" font-family="Calibri,Calibri_MSFontService,sans-serif" font-weight="400" font-size="19" transform="translate(652.075 576)">Code generation</text><rect x="620.5" y="413.5" width="190" height="79" stroke="#AE5A21" stroke-width="1.33333" stroke-miterlimit="8" fill="#ED7D31"/><text fill="#FFFFFF" font-family="Calibri,Calibri_MSFontService,sans-serif" font-weight="400" font-size="19" transform="translate(660.555 447)">CI/CD pipeline<tspan font-size="19" x="11.2267" y="23">(validation)</tspan></text><g clip-path="url(#clip4)"><g clip-path="url(#clip5)"><g clip-path="url(#clip6)"><path d="M46.7083 11.0625C46.7083 13.7779 39.0039 15.9792 29.5 15.9792 19.9961 15.9792 12.2917 13.7779 12.2917 11.0625 12.2917 8.3471 19.9961 6.14583 29.5 6.14583 39.0039 6.14583 46.7083 8.3471 46.7083 11.0625Z" transform="matrix(1.01695 0 0 1 786 407)"/><path d="M41.7917 23.3542C41.0542 23.3542 40.5625 22.8625 40.5625 22.125 40.5625 21.3875 41.0542 20.8958 41.7917 20.8958 42.5292 20.8958 43.0208 21.3875 43.0208 22.125 43.0208 22.8625 42.5292 23.3542 41.7917 23.3542ZM29.5 18.4375C20.0354 18.4375 12.2917 16.225 12.2917 13.5208L12.2917 23.3542C12.2917 26.0583 20.0354 28.2708 29.5 28.2708 38.9646 28.2708 46.7083 26.0583 46.7083 23.3542L46.7083 13.5208C46.7083 16.225 38.9646 18.4375 29.5 18.4375Z" transform="matrix(1.01695 0 0 1 786 407)"/><path d="M41.7917 35.6458C41.0542 35.6458 40.5625 35.1542 40.5625 34.4167 40.5625 33.6792 41.0542 33.1875 41.7917 33.1875 42.5292 33.1875 43.0208 33.6792 43.0208 34.4167 43.0208 35.1542 42.5292 35.6458 41.7917 35.6458ZM29.5 30.7292C20.0354 30.7292 12.2917 28.5167 12.2917 25.8125L12.2917 35.6458C12.2917 38.35 20.0354 40.5625 29.5 40.5625 38.9646 40.5625 46.7083 38.35 46.7083 35.6458L46.7083 25.8125C46.7083 28.5167 38.9646 30.7292 29.5 30.7292Z" transform="matrix(1.01695 0 0 1 786 407)"/><path d="M41.7917 47.9375C41.0542 47.9375 40.5625 47.4458 40.5625 46.7083 40.5625 45.9708 41.0542 45.4792 41.7917 45.4792 42.5292 45.4792 43.0208 45.9708 43.0208 46.7083 43.0208 47.4458 42.5292 47.9375 41.7917 47.9375ZM29.5 43.0208C20.0354 43.0208 12.2917 40.8083 12.2917 38.1042L12.2917 47.9375C12.2917 50.6417 20.0354 52.8542 29.5 52.8542 38.9646 52.8542 46.7083 50.6417 46.7083 47.9375L46.7083 38.1042C46.7083 40.8083 38.9646 43.0208 29.5 43.0208Z" transform="matrix(1.01695 0 0 1 786 407)"/></g></g></g><g clip-path="url(#clip7)"><g clip-path="url(#clip8)"><g clip-path="url(#clip9)"><path d="M827.5 553.25C827.5 556.011 819.665 558.25 810 558.25 800.335 558.25 792.5 556.011 792.5 553.25 792.5 550.489 800.335 548.25 810 548.25 819.665 548.25 827.5 550.489 827.5 553.25Z"/><path d="M822.5 565.75C821.75 565.75 821.25 565.25 821.25 564.5 821.25 563.75 821.75 563.25 822.5 563.25 823.25 563.25 823.75 563.75 823.75 564.5 823.75 565.25 823.25 565.75 822.5 565.75ZM810 560.75C800.375 560.75 792.5 558.5 792.5 555.75L792.5 565.75C792.5 568.5 800.375 570.75 810 570.75 819.625 570.75 827.5 568.5 827.5 565.75L827.5 555.75C827.5 558.5 819.625 560.75 810 560.75Z"/><path d="M822.5 578.25C821.75 578.25 821.25 577.75 821.25 577 821.25 576.25 821.75 575.75 822.5 575.75 823.25 575.75 823.75 576.25 823.75 577 823.75 577.75 823.25 578.25 822.5 578.25ZM810 573.25C800.375 573.25 792.5 571 792.5 568.25L792.5 578.25C792.5 581 800.375 583.25 810 583.25 819.625 583.25 827.5 581 827.5 578.25L827.5 568.25C827.5 571 819.625 573.25 810 573.25Z"/><path d="M822.5 590.75C821.75 590.75 821.25 590.25 821.25 589.5 821.25 588.75 821.75 588.25 822.5 588.25 823.25 588.25 823.75 588.75 823.75 589.5 823.75 590.25 823.25 590.75 822.5 590.75ZM810 585.75C800.375 585.75 792.5 583.5 792.5 580.75L792.5 590.75C792.5 593.5 800.375 595.75 810 595.75 819.625 595.75 827.5 593.5 827.5 590.75L827.5 580.75C827.5 583.5 819.625 585.75 810 585.75Z"/></g></g></g><path d="M382.833 201.5 382.833 204.167 382.167 204.167 382.167 201.5ZM382.833 206.167 382.833 208.833 382.167 208.833 382.167 206.167ZM382.833 210.833 382.833 213.5 382.167 213.5 382.167 210.833ZM382.833 215.5 382.833 218.167 382.167 218.167 382.167 215.5ZM382.833 220.167 382.833 222.833 382.167 222.833 382.167 220.167ZM386.5 222.25 382.5 230.25 378.5 222.25Z"/><path d="M509.833 201.5 509.833 204.167 509.167 204.167 509.167 201.5ZM509.833 206.167 509.833 208.833 509.167 208.833 509.167 206.167ZM509.833 210.833 509.833 213.5 509.167 213.5 509.167 210.833ZM509.833 215.5 509.833 218.167 509.167 218.167 509.167 215.5ZM509.833 220.167 509.833 222.833 509.167 222.833 509.167 220.167ZM513.5 223.323 509.5 231.323 505.5 223.323Z"/><path d="M0.00906694-0.33321 2.67475-0.260675 2.65661 0.405746-0.00906694 0.33321ZM4.67401-0.206273 7.33969-0.133737 7.32155 0.532683 4.65587 0.460147ZM9.35658-0.0706396 12.0144 0.146326 11.9602 0.810782 9.30234 0.593817ZM14.0078 0.30905 16.6656 0.526015 16.6114 1.19047 13.9535 0.973506ZM18.6753 0.704451 21.3176 1.06395 21.2277 1.72453 18.5854 1.36503ZM23.2994 1.33358 25.9417 1.69308 25.8518 2.35366 23.2095 1.99416ZM27.9388 1.98318 30.5571 2.48878 30.4307 3.14335 27.8124 2.63775ZM32.5208 2.86798 35.1391 3.37358 35.0127 4.02816 32.3944 3.52255ZM37.1137 3.77506 39.7059 4.40077 39.5495 5.04883 36.9573 4.42312ZM41.6501 4.87005 44.2423 5.49576 44.0859 6.14382 41.4937 5.51811ZM46.1955 5.98638 48.7589 6.72134 48.5751 7.36218 46.0117 6.62723ZM50.6814 7.27255 53.2448 8.00751 53.061 8.64836 50.4977 7.9134ZM55.1771 8.58896 57.696 9.46433 57.4771 10.094 54.9582 9.21869ZM59.5851 10.1208 62.104 10.9962 61.8852 11.6259 59.3663 10.7506ZM63.9995 11.6764 66.4791 12.6575 66.2338 13.2774 63.7542 12.2963ZM68.3388 13.3934 70.8184 14.3745 70.5731 14.9944 68.0935 14.0133ZM72.6835 15.1338 75.1196 16.2185 74.8484 16.8275 72.4123 15.7428ZM76.9467 17.032 79.3828 18.1167 79.1116 18.7257 76.6755 17.641ZM81.2149 18.9521 83.6036 20.1376 83.3072 20.7348 80.9185 19.5493ZM85.3951 21.0267 87.7837 22.2122 87.4874 22.8094 85.0987 21.6239ZM89.5844 23.1324 91.8865 24.4783 91.55 25.0538 89.2479 23.708ZM93.6131 25.4877 95.9152 26.8335 95.5787 27.4091 93.2766 26.0632ZM97.6418 27.8429 99.9439 29.1888 99.6074 29.7643 97.3053 28.4185ZM101.671 30.1982 103.973 31.544 103.636 32.1196 101.334 30.7737ZM105.714 32.5804 107.9 34.1084 107.518 34.6548 105.332 33.1267ZM109.539 35.2544 111.724 36.7825 111.342 37.3288 109.157 35.8008ZM113.363 37.9285 115.549 39.4565 115.167 40.0029 112.981 38.4749ZM117.188 40.6026 119.373 42.1306 118.991 42.677 116.806 41.1489ZM121.03 43.2991 123.081 45.0028 122.655 45.5156 120.604 43.812ZM124.62 46.2805 126.671 47.9841 126.246 48.497 124.194 46.7934ZM128.21 49.2619 130.262 50.9655 129.836 51.4784 127.784 49.7747ZM131.8 52.2432 133.852 53.9469 133.426 54.4598 131.374 52.7561ZM135.407 55.2473 137.311 57.1148 136.844 57.5907 134.94 55.7232ZM138.738 58.5154 140.642 60.3829 140.175 60.8588 138.271 58.9913ZM142.07 61.7835 143.973 63.651 143.506 64.1269 141.603 62.2594ZM145.401 65.0516 147.304 66.9191 146.838 67.395 144.934 65.5275ZM148.735 68.3553 150.475 70.3768 149.969 70.8116 148.23 68.7901ZM151.779 71.8929 153.518 73.9144 153.013 74.3492 151.274 72.3277ZM154.822 75.4305 156.562 77.4519 156.056 77.8867 154.317 75.8653ZM157.866 78.968 159.605 80.9895 159.1 81.4243 157.361 79.4028ZM160.891 82.5492 162.491 84.6825 161.958 85.0825 160.358 82.9492ZM163.691 86.2825 165.291 88.4158 164.758 88.8158 163.158 86.6825ZM166.463 90.0566 167.951 92.2697 167.398 92.6416 165.91 90.4286ZM169.067 93.9295 170.555 96.1426 170.001 96.5145 168.514 94.3014ZM171.638 97.8381 173.043 100.105 172.476 100.456 171.071 98.1893ZM174.096 101.805 175.501 104.071 174.935 104.422 173.53 102.156ZM176.486 105.832 177.768 108.17 177.183 108.491 175.901 106.153ZM178.73 109.924 179.921 112.097 180.011 112.281 179.412 112.573 179.325 112.396 179.333 112.41 178.145 110.245ZM180.888 114.078 182.057 116.474 181.458 116.767 180.289 114.37ZM182.935 118.272 183.741 119.925 184.07 120.704 183.456 120.963 183.13 120.192 183.138 120.209 182.335 118.564ZM184.847 122.547 185.884 125.004 185.27 125.263 184.233 122.806ZM186.661 126.846 187.123 127.942 187.626 129.352 186.998 129.575 186.499 128.174 186.505 128.192 186.047 127.106ZM188.298 131.235 189.193 133.747 188.566 133.971 187.67 131.459ZM189.865 135.631 190.005 136.022 190.642 138.202 190.002 138.389 189.368 136.219 189.374 136.237 189.237 135.855ZM191.203 140.121 191.951 142.681 191.311 142.868 190.563 140.308ZM192.493 144.624 193.102 147.22 192.453 147.373 191.844 144.777ZM193.56 149.167 194.169 151.763 193.52 151.916 192.911 149.32ZM194.546 153.749 194.984 156.379 194.327 156.489 193.888 153.858ZM195.313 158.352 195.706 160.706 195.735 161.007 195.072 161.072 195.043 160.782 195.046 160.805 194.656 158.461ZM195.93 162.998 196.189 165.652 195.526 165.717 195.266 163.063ZM196.384 167.642 196.52 169.04 196.568 170.321 195.902 170.346 195.854 169.075 195.856 169.095 195.72 167.707ZM200.197 169.23 196.5 177.375 192.202 169.531Z" transform="matrix(-1 1.22465e-16 1.22465e-16 1 460.945 178.5)"/><path d="M715.833 369.5 715.833 406.977 715.167 406.977 715.167 369.5ZM719.5 405.643 715.5 413.643 711.5 405.643Z"/><path d="M715.833 495.5 715.834 524.554 715.167 524.554 715.167 495.5ZM719.5 523.221 715.5 531.221 711.5 523.221Z"/><path d="M4.53843e-07-0.333333 2.66667-0.33333 2.66667 0.333337-4.53843e-07 0.333333ZM4.66667-0.333327 7.33333-0.333323 7.33333 0.333343 4.66667 0.33334ZM9.33333-0.333321 12-0.333317 12 0.33335 9.33333 0.333346ZM14-0.333314 16.6667-0.333311 16.6667 0.333356 14 0.333352ZM18.6667-0.333308 21.3333-0.333304 21.3333 0.333362 18.6667 0.333359ZM23.3333-0.333302 26-0.333298 26 0.333369 23.3333 0.333365ZM28-0.333295 30.6667-0.333292 30.6667 0.333375 28 0.333371ZM32.6667-0.333289 35.3333-0.333285 35.3333 0.333381 32.6667 0.333378ZM37.3333-0.333283 40-0.333279 40 0.333388 37.3333 0.333384ZM42-0.333276 44.6667-0.333272 44.6667 0.333394 42 0.333391ZM46.6667-0.33327 49.3333-0.333266 49.3333 0.333401 46.6667 0.333397ZM51.3333-0.333263 54-0.33326 54 0.333407 51.3333 0.333403ZM56-0.333257 58.6667-0.333253 58.6667 0.333413 56 0.33341ZM60.6667-0.333251 63.3333-0.333247 63.3333 0.33342 60.6667 0.333416ZM65.3333-0.333244 68-0.333241 68 0.333426 65.3333 0.333422ZM70-0.333238 70.4428-0.333237 70.4428 0.333429 70 0.333429ZM69.1095-3.99991 77.1095 0.000104987 69.1095 4.00009Z" transform="matrix(-1 0 0 1 326.61 624.5)"/><path d="M816.833 467.278 816.833 474.389 816.5 474.056 873.833 474.056 873.5 474.389 873.5 437.5 873.833 437.833 852.944 437.833 852.944 437.167 874.167 437.167 874.167 474.722 816.167 474.722 816.167 467.278ZM854.278 441.5 846.278 437.5 854.278 433.5Z"/><path d="M140.833 429.167 140.833 454.646 140.167 454.646 140.167 429.167ZM136.5 430.5 140.5 422.5 144.5 430.5ZM144.5 453.312 140.5 461.312 136.5 453.312Z"/><path d="M235.833 429.167 235.833 454.646 235.167 454.646 235.167 429.167ZM231.5 430.5 235.5 422.5 239.5 430.5ZM239.5 453.312 235.5 461.312 231.5 453.312Z"/><path d="M194.833 547.167 194.833 583.924 194.167 583.924 194.167 547.167ZM190.5 548.5 194.5 540.5 198.5 548.5ZM198.5 582.591 194.5 590.591 190.5 582.591Z"/><path d="M443.842 550.166 443.879 578.612 443.213 578.612 443.175 550.167ZM439.511 551.505 443.5 543.5 447.511 551.495ZM447.544 577.273 443.555 585.279 439.544 577.284Z"/><path d="M408.833 281.166 408.833 454.645 408.167 454.645 408.167 281.166ZM404.5 282.5 408.5 274.5 412.5 282.5ZM412.5 453.311 408.5 461.311 404.5 453.311Z"/><path d="M481.833 282.166 481.833 455.645 481.167 455.645 481.167 282.166ZM477.5 283.5 481.5 275.5 485.5 283.5ZM485.5 454.311 481.5 462.311 477.5 454.311Z"/><path d="M534.167 585.261 534.668 572.873 536.108 560.598 538.425 548.575 541.556 536.74 545.438 525.342 550.073 514.446 555.27 504.113 561.033 494.467 567.361 485.57 574.067 477.548 581.215 470.525 588.618 464.502 596.342 459.667 604.199 456.085 612.252 453.882 613.643 453.751 613.706 454.414 612.344 454.543 612.401 454.533 604.401 456.721 604.451 456.702 596.638 460.265 596.677 460.244 588.989 465.057 589.023 465.033 581.648 471.033 581.671 471.012 574.546 478.012 574.568 477.988 567.881 485.988 567.897 485.967 561.584 494.842 561.599 494.82 555.849 504.445 555.86 504.424 550.673 514.736 550.682 514.717 546.057 525.592 546.066 525.569 542.191 536.944 542.197 536.922 539.072 548.734 539.077 548.712 536.765 560.712 536.769 560.688 535.331 572.938 535.333 572.912 534.833 585.287ZM611.975 450.224 620.313 453.461 612.72 458.189Z"/><path d="M715.37 610.614 715.097 611.363 714.396 612.135 713.213 612.857 711.679 613.561 709.782 614.193 707.454 614.885 701.748 616.202 694.672 617.454 686.35 618.643 676.906 619.769 666.463 620.832 655.083 621.832 642.891 622.708 630.075 623.458 616.634 624.146 602.755 624.646 588.501 625.083 566.164 625.324 566.157 624.657 588.49 624.417 588.484 624.417 602.734 623.979 602.732 623.979 616.607 623.479 616.602 623.48 630.039 622.792 630.037 622.792 642.85 622.042 642.845 622.043 655.033 621.168 655.027 621.168 666.402 620.168 666.398 620.169 676.835 619.106 676.83 619.107 686.267 617.982 686.259 617.983 694.572 616.795 694.561 616.797 701.623 615.547 701.607 615.55 707.294 614.238 707.274 614.243 709.587 613.556 709.576 613.559 711.451 612.934 711.418 612.947 712.918 612.26 712.883 612.278 714.008 611.591 713.935 611.651 714.56 610.963 714.493 611.074 714.743 610.386ZM567.537 628.976 559.494 625.063 567.45 620.977Z"/><path d="M0.0422106-0.33065 3.02373 0.0499701 5.967 1.26567 8.95355 3.17198 11.8629 5.82833 14.762 9.10557 17.591 13.129 20.4149 17.71 23.1734 22.9763 25.9294 28.8014 28.6224 35.1895 31.1888 42.075 33.7541 49.5206 36.257 57.4672 38.6342 65.9125 40.9482 74.7308 43.1997 83.9872 45.326 93.6181 47.3898 103.687 51.2039 124.696 54.5179 146.955 57.3315 170.214 59.5823 194.223 61.2703 218.794 62.3332 243.803 62.609 262.329 61.9425 262.339 61.6667 243.817 61.667 243.827 60.6045 218.827 60.6049 218.835 58.9174 194.273 58.9181 194.281 56.6681 170.281 56.6691 170.29 53.8566 147.04 53.8578 147.049 50.5453 124.799 50.547 124.81 46.7345 103.81 46.736 103.817 44.6735 93.7544 44.6745 93.7594 42.5495 84.1344 42.5511 84.1413 40.3011 74.8913 40.3026 74.8971 37.9901 66.0846 37.9916 66.0903 35.6166 57.6528 35.6196 57.6626 33.1196 49.7251 33.1223 49.7336 30.5598 42.2961 30.5627 42.3039 28.0002 35.4289 28.0053 35.442 25.3178 29.067 25.3237 29.0801 22.5737 23.2676 22.5797 23.2797 19.8297 18.0297 19.8412 18.0499 17.0287 13.4874 17.0398 13.5042 14.2273 9.50423 14.2503 9.53336 11.3753 6.28336 11.4002 6.30866 8.52524 3.68366 8.57065 3.71847 5.63315 1.84347 5.68525 1.87059 2.81025 0.683087 2.89529 0.70565-0.0422106 0.33065ZM66.2555 260.941 62.375 269 58.2564 261.06Z" transform="matrix(1.83697e-16 1 1 -1.83697e-16 382.5 276.5)"/><path d="M558.507 254.167 573.201 254.479 587.777 255.355 602.103 256.794 616.115 258.796 629.628 261.173 642.579 264.051 654.842 267.305 666.358 270.872 676.876 274.816 686.395 279.012 694.793 283.399 701.949 288.044 707.665 292.881 710.002 295.281 711.972 297.823 713.712 301.365 713.113 301.658 711.388 298.147 711.424 298.204 709.487 295.704 709.511 295.733 707.199 293.358 707.222 293.38 701.535 288.567 701.569 288.592 694.444 283.967 694.471 283.983 686.096 279.608 686.116 279.618 676.616 275.43 676.633 275.437 666.133 271.5 666.151 271.506 654.651 267.943 654.665 267.947 642.415 264.697 642.428 264.7 629.49 261.825 629.505 261.828 616.005 259.453 616.015 259.455 602.015 257.455 602.029 257.457 587.717 256.019 587.73 256.02 573.168 255.145 573.18 255.146 558.493 254.833ZM716.913 299.161 715.188 307.938 709.202 301.291Z"/><path d="M0.0091919-0.333207 2.67484-0.259671 2.65646 0.406742-0.0091919 0.333207ZM4.67408-0.20452 7.33974-0.130985 7.32135 0.535428 4.6557 0.461893ZM9.35664-0.0599767 12.0141 0.161478 11.9587 0.825842 9.30128 0.604387ZM14.0072 0.327569 16.6646 0.549023 16.6093 1.21339 13.9518 0.991933ZM18.6725 0.748184 21.3138 1.11503 21.2221 1.77536 18.5808 1.40851ZM23.2948 1.39017 25.9361 1.75702 25.8444 2.41735 23.203 2.0505ZM27.9278 2.07977 30.5448 2.59218 30.4167 3.24642 27.7997 2.73401ZM32.5075 2.97649 35.1245 3.48891 34.9964 4.14315 32.3794 3.63073ZM37.0921 3.92586 39.6812 4.56404 39.5217 5.21133 36.9325 4.57315ZM41.6231 5.04267 44.2123 5.68085 44.0527 6.32814 41.4636 5.68996ZM46.1542 6.21479 48.7134 6.96426 48.526 7.60406 45.9668 6.85458ZM50.6328 7.52637 53.1919 8.27584 53.0046 8.91564 50.4454 8.16616ZM55.1044 8.91808 57.6194 9.80465 57.3977 10.4334 54.8828 9.54682ZM59.5056 10.4696 62.0206 11.3562 61.7989 11.9849 59.284 11.0983ZM63.8964 12.0892 66.3711 13.0827 66.1227 13.7013 63.648 12.7079ZM68.2271 13.8278 70.7018 14.8213 70.4534 15.44 67.9788 14.4465ZM72.5417 15.6425 74.9688 16.7473 74.6925 17.3541 72.2655 16.2492ZM76.789 17.576 79.216 18.6808 78.9398 19.2876 76.5128 18.1827ZM81.0157 19.5849 83.3936 20.7919 83.0919 21.3863 80.714 20.1794ZM85.177 21.6971 87.5549 22.9041 87.2532 23.4985 84.8753 22.2916ZM89.2962 23.9326 91.5868 25.298 91.2454 25.8706 88.9548 24.5053ZM93.3047 26.322 95.5953 27.6874 95.254 28.26 92.9634 26.8947ZM97.3133 28.7114 99.6039 30.0768 99.2626 30.6495 96.972 29.2841ZM101.322 31.1008 103.62 32.4706 103.635 32.4813 103.248 33.0245 103.244 33.0216 103.267 33.0363 100.98 31.6735ZM105.265 33.6398 107.438 35.1847 107.052 35.7281 104.879 34.1832ZM109.069 36.3433 111.242 37.8882 110.856 38.4316 108.682 36.8867ZM112.872 39.0469 115.046 40.5917 114.66 41.1351 112.486 39.5903ZM116.676 41.7504 118.767 43.2364 118.866 43.32 118.436 43.8292 118.347 43.7546 118.369 43.7717 116.29 42.2938ZM120.393 44.611 122.43 46.3323 122 46.8415 119.963 45.1202ZM123.958 47.6232 125.994 49.3446 125.564 49.8537 123.527 48.1324ZM127.522 50.6355 129.559 52.3568 129.128 52.866 127.092 51.1447ZM131.086 53.6478 132.913 55.1919 133.127 55.4058 132.656 55.8772 132.452 55.6732 132.472 55.6921 130.656 54.157ZM134.541 56.82 136.427 58.7056 135.956 59.177 134.07 57.2914ZM137.841 60.1198 139.727 62.0054 139.255 62.4768 137.37 60.5912ZM141.141 63.4196 143.027 65.3053 142.555 65.7767 140.67 63.891ZM144.441 66.7195 145.871 68.1494 146.304 68.6641 145.794 69.0936 145.37 68.5898 145.389 68.6107 143.969 67.1909ZM147.593 70.1937 149.311 72.2332 148.801 72.6627 147.083 70.6232ZM150.599 73.7629 152.317 75.8024 151.807 76.2319 150.089 74.1924ZM153.606 77.3321 155.324 79.3716 154.814 79.8011 153.096 77.7616ZM156.612 80.9012 157.574 82.0432 158.285 83.0025 157.75 83.3996 157.045 82.4485 157.058 82.4647 156.102 81.3307ZM159.476 84.6092 161.065 86.7513 160.529 87.1484 158.941 85.0062ZM162.256 88.3579 162.96 89.3084 163.79 90.5588 163.235 90.9275 162.41 89.6844 162.42 89.6985 161.72 88.755ZM164.897 92.225 166.372 94.4467 165.816 94.8154 164.341 92.5937ZM167.478 96.1129 167.907 96.7591 168.891 98.3906 168.32 98.735 167.34 97.1097 167.347 97.1219 166.922 96.4817ZM169.924 100.103 171.302 102.386 170.731 102.731 169.353 100.448ZM172.335 104.099 172.477 104.335 173.621 106.452 173.035 106.769 171.894 104.658 171.902 104.672 171.764 104.443ZM174.572 108.212 175.84 110.558 175.253 110.875 173.986 108.529ZM176.787 112.338 177.941 114.742 177.34 115.03 176.186 112.626ZM178.806 116.545 179.96 118.949 179.359 119.237 178.205 116.833ZM180.782 120.794 181.785 123.264 181.168 123.515 180.164 121.044ZM182.538 125.117 183.542 127.588 182.924 127.839 181.921 125.368ZM184.234 129.479 185.13 131.991 184.502 132.215 183.606 129.703ZM185.801 133.875 186.567 136.022 186.681 136.412 186.041 136.599 185.93 136.219 185.936 136.237 185.174 134.099ZM187.242 138.332 187.99 140.891 187.351 141.078 186.602 138.519ZM188.552 142.811 188.948 144.166 189.23 145.409 188.58 145.557 188.3 144.324 188.305 144.344 187.912 142.998ZM189.674 147.36 190.265 149.96 189.615 150.108 189.023 147.507ZM190.708 151.91 190.827 152.437 191.165 154.559 190.507 154.664 190.171 152.552 190.175 152.574 190.058 152.058ZM191.479 156.534 191.898 159.168 191.24 159.272 190.821 156.639ZM192.191 161.163 192.47 163.815 191.807 163.885 191.528 161.233ZM192.68 165.804 192.959 168.456 192.296 168.526 192.017 165.874ZM193.064 170.477 193.07 170.701 192.404 170.721 192.397 170.497ZM196.695 169.258 192.937 177.375 188.699 169.499Z" transform="matrix(-1 1.22465e-16 1.22465e-16 1 333.389 178.5)"/><text font-family="Calibri,Calibri_MSFontService,sans-serif" font-weight="400" font-size="15" transform="translate(829.822 490)">Source <tspan font-size="15" x="0" y="17">management</tspan><tspan font-size="15" x="9.83246" y="91">Container</tspan><tspan font-size="15" x="-806.889" y="18">database</tspan><tspan font-size="15" x="-278.889" y="41">feedback</tspan><tspan font-size="15" x="-224.001" y="154">deploy</tspan><tspan font-weight="700" font-size="15" x="-686.89" y="-346">M2M</tspan><tspan font-weight="700" font-size="15" x="-416" y="-349">Ptolemy II</tspan><tspan font-weight="700" font-size="15" x="-178.002" y="-352">TwinOps</tspan></text></g></svg>