<svg width="960" height="720" xmlns="http://www.w3.org/2000/svg" xmlns:xlink="http://www.w3.org/1999/xlink" overflow="hidden"><defs><clipPath id="clip0"><rect x="0" y="0" width="960" height="720"/></clipPath></defs><g clip-path="url(#clip0)"><rect x="0" y="0" width="960" height="720" fill="#FFFFFF"/><text fill="#898989" font-family="Calibri,Calibri_MSFontService,sans-serif" font-weight="400" font-size="16" transform="translate(876.1 692)">1</text><path d="M386.5 282C386.5 254.11 408.886 231.5 436.5 231.5 464.114 231.5 486.5 254.11 486.5 282 486.5 309.89 464.114 332.5 436.5 332.5 408.886 332.5 386.5 309.89 386.5 282Z" stroke="#D7712B" stroke-width="1.33333" stroke-miterlimit="8" fill="#FFFFFF" fill-rule="evenodd"/><text font-family="Calibri,Calibri_MSFontService,sans-serif" font-weight="400" font-size="24" transform="translate(404.208 275)">Model <tspan font-size="24" x="24.6667" y="26">A</tspan></text><path d="M485.2 323.592 491.858 335.125 504.345 327.917 479.788 357.472 441.914 363.961 454.4 356.752 447.741 345.219Z" fill="#F4BFAD" fill-rule="evenodd"/><text font-family="Calibri,Calibri_MSFontService,sans-serif" font-weight="400" font-size="17" transform="matrix(0.5 0.866025 -0.866025 0.5 465.058 341)">1</text><path d="M461.5 412.5C461.5 384.886 483.886 362.5 511.5 362.5 539.114 362.5 561.5 384.886 561.5 412.5 561.5 440.114 539.114 462.5 511.5 462.5 483.886 462.5 461.5 440.114 461.5 412.5Z" stroke="#D7712B" stroke-width="1.33333" stroke-miterlimit="8" fill="#FFFFFF" fill-rule="evenodd"/><text font-family="Calibri,Calibri_MSFontService,sans-serif" font-weight="400" font-size="24" transform="translate(479.577 405)">Model <tspan font-size="24" x="25.0867" y="26">B</tspan></text><path d="M450 422.2 436.5 422.2 436.5 429 423 412 436.5 395 436.5 401.8 450 401.8Z" fill="#F4BFAD" fill-rule="evenodd"/><text font-family="Calibri,Calibri_MSFontService,sans-serif" font-weight="400" font-size="17" transform="translate(436.177 416)">2</text><path d="M310.5 412.5C310.5 384.886 333.11 362.5 361 362.5 388.89 362.5 411.5 384.886 411.5 412.5 411.5 440.114 388.89 462.5 361 462.5 333.11 462.5 310.5 440.114 310.5 412.5Z" stroke="#D7712B" stroke-width="1.33333" stroke-miterlimit="8" fill="#FFFFFF" fill-rule="evenodd"/><text font-family="Calibri,Calibri_MSFontService,sans-serif" font-weight="400" font-size="24" transform="translate(328.84 405)">Model <tspan font-size="24" x="25.2133" y="26">C</tspan></text><path d="M380.641 352.737 387.299 341.204 380.325 337.178 404.419 335.711 415.196 357.311 408.222 353.284 401.563 364.817Z" fill="#F4BFAD" fill-rule="evenodd"/><text font-family="Calibri,Calibri_MSFontService,sans-serif" font-weight="400" font-size="17" transform="matrix(0.5 -0.866025 0.866025 0.5 397.443 357)">4</text><rect x="711.5" y="330.5" width="83" height="60" stroke="#2F528F" stroke-width="1.33333" stroke-miterlimit="8" fill="#4472C4"/><text fill="#FFFFFF" font-family="Calibri,Calibri_MSFontService,sans-serif" font-weight="400" font-size="16" transform="translate(723.89 365)">interface</text><path d="M141.5 316.5 219.722 316.5" stroke="#000000" stroke-width="0.666667" stroke-miterlimit="8" fill="none" fill-rule="evenodd"/><path d="M223.5 250.5 223.5 302.944" stroke="#000000" stroke-width="0.666667" stroke-miterlimit="8" fill="none" fill-rule="evenodd"/><text font-family="Calibri,Calibri_MSFontService,sans-serif" font-weight="400" font-size="24" transform="translate(157.625 337)">time<tspan font-size="24" x="72.2436" y="-57">info</tspan></text><path d="M700.5 249.5C700.5 221.886 723.11 199.5 751 199.5 778.89 199.5 801.5 221.886 801.5 249.5 801.5 277.114 778.89 299.5 751 299.5 723.11 299.5 700.5 277.114 700.5 249.5Z" stroke="#000000" stroke-width="1.33333" stroke-miterlimit="8" fill="#FFFFFF" fill-rule="evenodd"/><text font-family="Calibri,Calibri_MSFontService,sans-serif" font-weight="400" font-size="24" transform="translate(718.89 243)">Model <tspan font-size="24" x="24.7533" y="26">A </tspan></text><path d="M705.5 471.5C705.5 443.886 727.886 421.5 755.5 421.5 783.114 421.5 805.5 443.886 805.5 471.5 805.5 499.114 783.114 521.5 755.5 521.5 727.886 521.5 705.5 499.114 705.5 471.5Z" stroke="#000000" stroke-width="1.33333" stroke-miterlimit="8" fill="#FFFFFF" fill-rule="evenodd"/><text font-family="Calibri,Calibri_MSFontService,sans-serif" font-weight="400" font-size="24" transform="translate(723.082 465)">Model <tspan font-size="24" x="25.1667" y="26">B </tspan></text><rect x="101.5" y="225.5" width="482" height="256" stroke="#F4B183" stroke-width="1.33333" stroke-miterlimit="8" fill="none"/><path d="M707 390.5 800 390.5 823.5 414 823.5 437.5 823.5 437.5 683.5 437.5 683.5 437.5 683.5 414Z" stroke="#41719C" stroke-width="1.33333" stroke-miterlimit="8" fill="#5B9BD5" fill-rule="evenodd"/><text fill="#FFFFFF" font-family="Calibri,Calibri_MSFontService,sans-serif" font-weight="400" font-size="16" transform="translate(707.851 425)">encapsulation</text><path d="M797 334.5 705 334.5 681.5 311 681.5 287.5 681.5 287.5 820.5 287.5 820.5 287.5 820.5 311Z" stroke="#41719C" stroke-width="1.33333" stroke-miterlimit="8" fill="#5B9BD5" fill-rule="evenodd"/><rect x="641.5" y="178.5" width="218" height="364" stroke="#4472C4" stroke-width="1.33333" stroke-miterlimit="8" fill="none"/><path d="M212 292.4 159.5 292.4 159.5 303 133 276.5 159.5 250 159.5 260.6 212 260.6Z" fill="#F4BFAD" fill-rule="evenodd"/><text font-family="Calibri,Calibri_MSFontService,sans-serif" font-weight="400" font-size="17" transform="translate(164.784 281)">order</text><path d="M392.161 309.164 368.637 346.817 374.389 350.41 351.024 355.806 345.628 332.441 351.38 336.035 374.904 298.382Z" fill="#F4BFAD" fill-rule="evenodd"/><text font-family="Calibri,Calibri_MSFontService,sans-serif" font-weight="400" font-size="17" transform="matrix(0.529861 -0.848084 0.848084 0.529861 373.749 328)">3</text></g></svg>