<svg width="960" height="720" xmlns="http://www.w3.org/2000/svg" xmlns:xlink="http://www.w3.org/1999/xlink" overflow="hidden"><defs><clipPath id="clip0"><rect x="0" y="0" width="960" height="720"/></clipPath></defs><g clip-path="url(#clip0)"><rect x="0" y="0" width="960" height="720" fill="#FFFFFF"/><path d="M200 233.6C200 229.955 202.955 227 206.6 227L424.4 227C428.045 227 431 229.955 431 233.6L431 286.4C431 290.045 428.045 293 424.4 293L206.6 293C202.955 293 200 290.045 200 286.4Z" stroke="#3D67B1" stroke-width="2" stroke-miterlimit="8" fill="#FFFFFF" fill-rule="evenodd"/><text font-family="Calibri,Calibri_MSFontService,sans-serif" font-weight="700" font-size="16" transform="translate(249.341 256)">1. Identify desirable <tspan font-size="16" x="18.52" y="18">characteristics</tspan></text><path d="M319.2 295 319.2 301 322 301 315 307 308 301 310.8 301 310.8 295Z" fill="#B0BCDE" fill-rule="evenodd"/><path d="M200 315.6C200 311.955 202.955 309 206.6 309L424.4 309C428.045 309 431 311.955 431 315.6L431 368.4C431 372.045 428.045 375 424.4 375L206.6 375C202.955 375 200 372.045 200 368.4Z" stroke="#3D67B1" stroke-width="2" stroke-miterlimit="8" fill="#FFFFFF" fill-rule="evenodd"/><text font-family="Calibri,Calibri_MSFontService,sans-serif" font-weight="700" font-size="16" transform="translate(208.721 346)">2. Define requirements and KPIs</text><path d="M319.2 377 319.2 383 322 383 315 389 308 383 310.8 383 310.8 377Z" fill="#B0BCDE" fill-rule="evenodd"/><path d="M200 398.2C200 394.224 203.224 391 207.2 391L423.8 391C427.776 391 431 394.224 431 398.2L431 455.8C431 459.776 427.776 463 423.8 463L207.2 463C203.224 463 200 459.776 200 455.8Z" stroke="#3D67B1" stroke-width="2" stroke-miterlimit="8" fill="#FFFFFF" fill-rule="evenodd"/><text font-family="Calibri,Calibri_MSFontService,sans-serif" font-weight="700" font-size="16" transform="translate(222.877 431)">3. Compare the frameworks</text><path d="M319.2 465 319.2 471 322 471 315 477 308 471 310.8 471 310.8 465Z" fill="#B0BCDE" fill-rule="evenodd"/><path d="M200 485.7C200 482 203 479 206.7 479L424.3 479C428 479 431 482 431 485.7L431 539.3C431 543 428 546 424.3 546L206.7 546C203 546 200 543 200 539.3Z" stroke="#3D67B1" stroke-width="2" stroke-miterlimit="8" fill="#FFFFFF" fill-rule="evenodd"/><text font-family="Calibri,Calibri_MSFontService,sans-serif" font-weight="700" font-size="16" transform="translate(220.297 516)">4. Determine service priority</text><path d="M525 231.1C525 228.836 526.836 227 529.1 227L752.9 227C755.164 227 757 228.836 757 231.1L757 263.9C757 266.164 755.164 268 752.9 268L529.1 268C526.836 268 525 266.164 525 263.9Z" stroke="#D7712B" stroke-width="2" stroke-miterlimit="8" fill="#FFFFFF" fill-rule="evenodd"/><text font-family="Calibri,Calibri_MSFontService,sans-serif" font-weight="700" font-size="16" transform="translate(543.405 243)">5. Implement <tspan font-size="16" x="92.52" y="0">the first chosen </tspan><tspan font-size="16" x="74.2867" y="18">service</tspan></text><path d="M647 271 647 279.5 651 279.5 641 288 631 279.5 635 279.5 635 271Z" fill="#F4BFAD" fill-rule="evenodd"/><path d="M525 295.2C525 292.328 527.328 290 530.2 290L751.8 290C754.672 290 757 292.328 757 295.2L757 336.8C757 339.672 754.672 342 751.8 342L530.2 342C527.328 342 525 339.672 525 336.8Z" stroke="#D7712B" stroke-width="2" stroke-miterlimit="8" fill="#FFFFFF" fill-rule="evenodd"/><text font-family="Calibri,Calibri_MSFontService,sans-serif" font-weight="700" font-size="16" transform="translate(583.301 320)">6. Answer to RQ3</text><path d="M647 344 647 352.5 651 352.5 641 361 631 352.5 635 352.5 635 344Z" fill="#F4BFAD" fill-rule="evenodd"/><path d="M527 368.5C527 366.015 529.015 364 531.5 364L750.5 364C752.985 364 755 366.015 755 368.5L755 404.5C755 406.985 752.985 409 750.5 409L531.5 409C529.015 409 527 406.985 527 404.5Z" stroke="#D7712B" stroke-width="2" stroke-miterlimit="8" fill="#FFFFFF" fill-rule="evenodd"/><text font-family="Calibri,Calibri_MSFontService,sans-serif" font-weight="700" font-size="16" transform="translate(543.858 382)">7. Implement the other three <tspan font-size="16" x="70.64" y="18">services</tspan></text><path d="M647 412 647 420.5 651 420.5 641 429 631 420.5 635 420.5 635 412Z" fill="#F4BFAD" fill-rule="evenodd"/><path d="M525 436.7C525 434.104 527.104 432 529.7 432L752.3 432C754.896 432 757 434.104 757 436.7L757 474.3C757 476.896 754.896 479 752.3 479L529.7 479C527.104 479 525 476.896 525 474.3Z" stroke="#D7712B" stroke-width="2" stroke-miterlimit="8" fill="#FFFFFF" fill-rule="evenodd"/><text font-family="Calibri,Calibri_MSFontService,sans-serif" font-weight="700" font-size="16" transform="translate(583.301 460)">8. Answer to RQ1</text><path d="M647 482 647 490.5 651 490.5 641 499 631 490.5 635 490.5 635 482Z" fill="#F4BFAD" fill-rule="evenodd"/><path d="M526 505.5C526 503.015 528.015 501 530.5 501L751.5 501C753.985 501 756 503.015 756 505.5L756 541.5C756 543.985 753.985 546 751.5 546L530.5 546C528.015 546 526 543.985 526 541.5Z" stroke="#D7712B" stroke-width="2" stroke-miterlimit="8" fill="#FFFFFF" fill-rule="evenodd"/><text font-family="Calibri,Calibri_MSFontService,sans-serif" font-weight="700" font-size="16" transform="translate(583.301 528)">9. Answer to RQ2</text><rect x="200.5" y="135.5" width="231" height="66" stroke="#2F528F" stroke-width="1.33333" stroke-miterlimit="8" fill="#4472C4"/><text fill="#FFFFFF" font-family="Calibri,Calibri_MSFontService,sans-serif" font-weight="400" font-size="24" transform="translate(226.224 176)">Preparation phase</text><rect x="521.5" y="135.5" width="240" height="66" stroke="#AE5A21" stroke-width="1.33333" stroke-miterlimit="8" fill="#ED7D31"/><text fill="#FFFFFF" font-family="Calibri,Calibri_MSFontService,sans-serif" font-weight="400" font-size="24" transform="translate(530.975 176)">implementation phase</text></g></svg>