<svg width="960" height="720" xmlns="http://www.w3.org/2000/svg" xmlns:xlink="http://www.w3.org/1999/xlink" overflow="hidden"><defs><clipPath id="clip0"><rect x="0" y="0" width="960" height="720"/></clipPath></defs><g clip-path="url(#clip0)"><rect x="0" y="0" width="960" height="720" fill="#FFFFFF"/><path d="M160 43.2 271.059 43.2 271.059 72 160 72Z" fill="#4472C4" fill-rule="evenodd"/><path d="M271.059 43.2 563.765 43.2 563.765 72 271.059 72Z" fill="#4472C4" fill-rule="evenodd"/><path d="M563.765 43.2 722.823 43.2 722.823 72 563.765 72Z" fill="#4472C4" fill-rule="evenodd"/><path d="M160 72 271.059 72 271.059 100.8 160 100.8Z" fill="#4472C4" fill-rule="evenodd"/><path d="M271.059 72 563.765 72 563.765 100.8 271.059 100.8Z" fill="#F2F2F2" fill-rule="evenodd"/><path d="M563.765 72 722.823 72 722.823 100.8 563.765 100.8Z" fill="#F2F2F2" fill-rule="evenodd"/><path d="M160 100.8 271.059 100.8 271.059 129.6 160 129.6Z" fill="#4472C4" fill-rule="evenodd"/><path d="M271.059 100.8 563.765 100.8 563.765 129.6 271.059 129.6Z" fill="#F2F2F2" fill-rule="evenodd"/><path d="M563.765 100.8 722.823 100.8 722.823 129.6 563.765 129.6Z" fill="#F2F2F2" fill-rule="evenodd"/><path d="M160 129.6 271.059 129.6 271.059 158.4 160 158.4Z" fill="#4472C4" fill-rule="evenodd"/><path d="M271.059 129.6 563.765 129.6 563.765 158.4 271.059 158.4Z" fill="#F2F2F2" fill-rule="evenodd"/><path d="M563.765 129.6 722.823 129.6 722.823 158.4 563.765 158.4Z" fill="#F2F2F2" fill-rule="evenodd"/><path d="M160 158.4 271.059 158.4 271.059 187.2 160 187.2Z" fill="#4472C4" fill-rule="evenodd"/><path d="M271.059 158.4 563.765 158.4 563.765 187.2 271.059 187.2Z" fill="#F2F2F2" fill-rule="evenodd"/><path d="M563.765 158.4 722.823 158.4 722.823 187.2 563.765 187.2Z" fill="#F2F2F2" fill-rule="evenodd"/><path d="M160 187.2 271.059 187.2 271.059 216 160 216Z" fill="#4472C4" fill-rule="evenodd"/><path d="M271.059 187.2 563.765 187.2 563.765 216 271.059 216Z" fill="#F2F2F2" fill-rule="evenodd"/><path d="M563.765 187.2 722.823 187.2 722.823 216 563.765 216Z" fill="#F2F2F2" fill-rule="evenodd"/><path d="M160 216 271.059 216 271.059 244.8 160 244.8Z" fill="#4472C4" fill-rule="evenodd"/><path d="M271.059 216 563.765 216 563.765 244.8 271.059 244.8Z" fill="#F2F2F2" fill-rule="evenodd"/><path d="M563.765 216 722.823 216 722.823 244.8 563.765 244.8Z" fill="#F2F2F2" fill-rule="evenodd"/><path d="M160 244.8 271.059 244.8 271.059 273.6 160 273.6Z" fill="#4472C4" fill-rule="evenodd"/><path d="M271.059 244.8 563.765 244.8 563.765 273.6 271.059 273.6Z" fill="#F2F2F2" fill-rule="evenodd"/><path d="M563.765 244.8 722.823 244.8 722.823 273.6 563.765 273.6Z" fill="#F2F2F2" fill-rule="evenodd"/><path d="M160 273.6 271.059 273.6 271.059 302.4 160 302.4Z" fill="#4472C4" fill-rule="evenodd"/><path d="M271.059 273.6 563.765 273.6 563.765 302.4 271.059 302.4Z" fill="#F2F2F2" fill-rule="evenodd"/><path d="M563.765 273.6 722.823 273.6 722.823 302.4 563.765 302.4Z" fill="#F2F2F2" fill-rule="evenodd"/><path d="M160 302.4 271.059 302.4 271.059 331.2 160 331.2Z" fill="#4472C4" fill-rule="evenodd"/><path d="M271.059 302.4 563.765 302.4 563.765 331.2 271.059 331.2Z" fill="#F2F2F2" fill-rule="evenodd"/><path d="M563.765 302.4 722.823 302.4 722.823 331.2 563.765 331.2Z" fill="#F2F2F2" fill-rule="evenodd"/><path d="M160 331.2 271.059 331.2 271.059 360 160 360Z" fill="#4472C4" fill-rule="evenodd"/><path d="M271.059 331.2 563.765 331.2 563.765 360 271.059 360Z" fill="#F2F2F2" fill-rule="evenodd"/><path d="M563.765 331.2 722.823 331.2 722.823 360 563.765 360Z" fill="#F2F2F2" fill-rule="evenodd"/><path d="M160 360 271.059 360 271.059 388.8 160 388.8Z" fill="#4472C4" fill-rule="evenodd"/><path d="M271.059 360 563.765 360 563.765 388.8 271.059 388.8Z" fill="#F2F2F2" fill-rule="evenodd"/><path d="M563.765 360 722.823 360 722.823 388.8 563.765 388.8Z" fill="#F2F2F2" fill-rule="evenodd"/><path d="M160 388.8 271.059 388.8 271.059 417.6 160 417.6Z" fill="#4472C4" fill-rule="evenodd"/><path d="M271.059 388.8 563.765 388.8 563.765 417.6 271.059 417.6Z" fill="#F2F2F2" fill-rule="evenodd"/><path d="M563.765 388.8 722.823 388.8 722.823 417.6 563.765 417.6Z" fill="#F2F2F2" fill-rule="evenodd"/><path d="M160 417.6 271.059 417.6 271.059 446.4 160 446.4Z" fill="#4472C4" fill-rule="evenodd"/><path d="M271.059 417.6 563.765 417.6 563.765 446.4 271.059 446.4Z" fill="#F2F2F2" fill-rule="evenodd"/><path d="M563.765 417.6 722.823 417.6 722.823 446.4 563.765 446.4Z" fill="#F2F2F2" fill-rule="evenodd"/><path d="M160 446.4 271.059 446.4 271.059 475.2 160 475.2Z" fill="#4472C4" fill-rule="evenodd"/><path d="M271.059 446.4 563.765 446.4 563.765 475.2 271.059 475.2Z" fill="#F2F2F2" fill-rule="evenodd"/><path d="M563.765 446.4 722.823 446.4 722.823 475.2 563.765 475.2Z" fill="#F2F2F2" fill-rule="evenodd"/><path d="M160 475.2 271.059 475.2 271.059 504 160 504Z" fill="#4472C4" fill-rule="evenodd"/><path d="M271.059 475.2 563.765 475.2 563.765 504 271.059 504Z" fill="#F2F2F2" fill-rule="evenodd"/><path d="M563.765 475.2 722.823 475.2 722.823 504 563.765 504Z" fill="#F2F2F2" fill-rule="evenodd"/><path d="M160 504 271.059 504 271.059 532.8 160 532.8Z" fill="#4472C4" fill-rule="evenodd"/><path d="M271.059 504 563.765 504 563.765 532.8 271.059 532.8Z" fill="#F2F2F2" fill-rule="evenodd"/><path d="M563.765 504 722.823 504 722.823 532.8 563.765 532.8Z" fill="#F2F2F2" fill-rule="evenodd"/><path d="M160 532.8 271.059 532.8 271.059 561.6 160 561.6Z" fill="#4472C4" fill-rule="evenodd"/><path d="M271.059 532.8 563.765 532.8 563.765 561.6 271.059 561.6Z" fill="#F2F2F2" fill-rule="evenodd"/><path d="M563.765 532.8 722.823 532.8 722.823 561.6 563.765 561.6Z" fill="#F2F2F2" fill-rule="evenodd"/><path d="M160 561.6 271.059 561.6 271.059 590.4 160 590.4Z" fill="#4472C4" fill-rule="evenodd"/><path d="M271.059 561.6 563.765 561.6 563.765 590.4 271.059 590.4Z" fill="#F2F2F2" fill-rule="evenodd"/><path d="M563.765 561.6 722.823 561.6 722.823 590.4 563.765 590.4Z" fill="#F2F2F2" fill-rule="evenodd"/><path d="M160 590.4 271.059 590.4 271.059 619.2 160 619.2Z" fill="#4472C4" fill-rule="evenodd"/><path d="M271.059 590.4 563.765 590.4 563.765 619.2 271.059 619.2Z" fill="#F2F2F2" fill-rule="evenodd"/><path d="M563.765 590.4 722.823 590.4 722.823 619.2 563.765 619.2Z" fill="#F2F2F2" fill-rule="evenodd"/><path d="M160 619.2 271.059 619.2 271.059 648 160 648Z" fill="#4472C4" fill-rule="evenodd"/><path d="M271.059 619.2 563.765 619.2 563.765 648 271.059 648Z" fill="#F2F2F2" fill-rule="evenodd"/><path d="M563.765 619.2 722.823 619.2 722.823 648 563.765 648Z" fill="#F2F2F2" fill-rule="evenodd"/><path d="M160 648 271.059 648 271.059 676.8 160 676.8Z" fill="#4472C4" fill-rule="evenodd"/><path d="M271.059 648 563.765 648 563.765 676.8 271.059 676.8Z" fill="#F2F2F2" fill-rule="evenodd"/><path d="M563.765 648 722.823 648 722.823 676.8 563.765 676.8Z" fill="#F2F2F2" fill-rule="evenodd"/><path d="M271.059 42.5333 271.059 677.467" stroke="#FFFFFF" stroke-width="1.33333" stroke-linejoin="round" stroke-miterlimit="10" fill="none" fill-rule="evenodd"/><path d="M563.765 42.5333 563.765 677.467" stroke="#FFFFFF" stroke-width="1.33333" stroke-linejoin="round" stroke-miterlimit="10" fill="none" fill-rule="evenodd"/><path d="M159.333 72 723.49 72" stroke="#FFFFFF" stroke-width="4" stroke-linejoin="round" stroke-miterlimit="10" fill="none" fill-rule="evenodd"/><path d="M159.333 100.8 723.49 100.8" stroke="#FFFFFF" stroke-width="1.33333" stroke-linejoin="round" stroke-miterlimit="10" fill="none" fill-rule="evenodd"/><path d="M159.333 129.6 723.49 129.6" stroke="#FFFFFF" stroke-width="1.33333" stroke-linejoin="round" stroke-miterlimit="10" fill="none" fill-rule="evenodd"/><path d="M159.333 158.4 723.49 158.4" stroke="#FFFFFF" stroke-width="1.33333" stroke-linejoin="round" stroke-miterlimit="10" fill="none" fill-rule="evenodd"/><path d="M159.333 187.2 723.49 187.2" stroke="#FFFFFF" stroke-width="1.33333" stroke-linejoin="round" stroke-miterlimit="10" fill="none" fill-rule="evenodd"/><path d="M159.333 216 723.49 216" stroke="#FFFFFF" stroke-width="1.33333" stroke-linejoin="round" stroke-miterlimit="10" fill="none" fill-rule="evenodd"/><path d="M159.333 244.8 723.49 244.8" stroke="#FFFFFF" stroke-width="1.33333" stroke-linejoin="round" stroke-miterlimit="10" fill="none" fill-rule="evenodd"/><path d="M159.333 273.6 723.49 273.6" stroke="#FFFFFF" stroke-width="1.33333" stroke-linejoin="round" stroke-miterlimit="10" fill="none" fill-rule="evenodd"/><path d="M159.333 302.4 723.49 302.4" stroke="#FFFFFF" stroke-width="1.33333" stroke-linejoin="round" stroke-miterlimit="10" fill="none" fill-rule="evenodd"/><path d="M159.333 331.2 723.49 331.2" stroke="#FFFFFF" stroke-width="1.33333" stroke-linejoin="round" stroke-miterlimit="10" fill="none" fill-rule="evenodd"/><path d="M159.333 360 723.49 360" stroke="#FFFFFF" stroke-width="1.33333" stroke-linejoin="round" stroke-miterlimit="10" fill="none" fill-rule="evenodd"/><path d="M159.333 388.8 723.49 388.8" stroke="#FFFFFF" stroke-width="1.33333" stroke-linejoin="round" stroke-miterlimit="10" fill="none" fill-rule="evenodd"/><path d="M159.333 417.6 723.49 417.6" stroke="#FFFFFF" stroke-width="1.33333" stroke-linejoin="round" stroke-miterlimit="10" fill="none" fill-rule="evenodd"/><path d="M159.333 446.4 723.49 446.4" stroke="#FFFFFF" stroke-width="1.33333" stroke-linejoin="round" stroke-miterlimit="10" fill="none" fill-rule="evenodd"/><path d="M159.333 475.2 723.49 475.2" stroke="#FFFFFF" stroke-width="1.33333" stroke-linejoin="round" stroke-miterlimit="10" fill="none" fill-rule="evenodd"/><path d="M159.333 504 723.49 504" stroke="#FFFFFF" stroke-width="1.33333" stroke-linejoin="round" stroke-miterlimit="10" fill="none" fill-rule="evenodd"/><path d="M159.333 532.8 723.49 532.8" stroke="#FFFFFF" stroke-width="1.33333" stroke-linejoin="round" stroke-miterlimit="10" fill="none" fill-rule="evenodd"/><path d="M159.333 561.6 723.49 561.6" stroke="#FFFFFF" stroke-width="1.33333" stroke-linejoin="round" stroke-miterlimit="10" fill="none" fill-rule="evenodd"/><path d="M159.333 590.4 723.49 590.4" stroke="#FFFFFF" stroke-width="1.33333" stroke-linejoin="round" stroke-miterlimit="10" fill="none" fill-rule="evenodd"/><path d="M159.333 619.2 723.49 619.2" stroke="#FFFFFF" stroke-width="1.33333" stroke-linejoin="round" stroke-miterlimit="10" fill="none" fill-rule="evenodd"/><path d="M159.333 648 723.49 648" stroke="#FFFFFF" stroke-width="1.33333" stroke-linejoin="round" stroke-miterlimit="10" fill="none" fill-rule="evenodd"/><path d="M160 42.5333 160 677.467" stroke="#FFFFFF" stroke-width="1.33333" stroke-linejoin="round" stroke-miterlimit="10" fill="none" fill-rule="evenodd"/><path d="M722.823 42.5333 722.823 677.467" stroke="#FFFFFF" stroke-width="1.33333" stroke-linejoin="round" stroke-miterlimit="10" fill="none" fill-rule="evenodd"/><path d="M159.333 43.2 723.49 43.2" stroke="#FFFFFF" stroke-width="1.33333" stroke-linejoin="round" stroke-miterlimit="10" fill="none" fill-rule="evenodd"/><path d="M159.333 676.8 723.49 676.8" stroke="#FFFFFF" stroke-width="1.33333" stroke-linejoin="round" stroke-miterlimit="10" fill="none" fill-rule="evenodd"/><text fill="#FFFFFF" font-family="Calibri,Calibri_MSFontService,sans-serif" font-weight="700" font-size="16" transform="translate(169.6 63)">Month<tspan font-size="16" x="45.3533" y="0">-</tspan><tspan font-size="16" x="50.1867" y="0">Week</tspan><tspan font-size="16" x="111.059" y="0">Project steps (implementation phase)</tspan><tspan font-size="16" x="403.765" y="0">Documentation</tspan><tspan font-size="16" x="0" y="29">M5</tspan><tspan font-size="16" x="22.1667" y="29">-</tspan><tspan font-size="16" x="27" y="29">W1</tspan><tspan font-size="16" x="0" y="58">M5</tspan><tspan font-size="16" x="22.1667" y="58">-</tspan><tspan font-size="16" x="27" y="58">W2</tspan><tspan fill="#000000" font-weight="400" font-size="16" x="111.059" y="58">Step 5 (build one service) begins</tspan><tspan font-size="16" x="0" y="86">M5</tspan><tspan font-size="16" x="22.1667" y="86">-</tspan><tspan font-size="16" x="27" y="86">W3</tspan><tspan font-size="16" x="0" y="115">M5</tspan><tspan font-size="16" x="22.1667" y="115">-</tspan><tspan font-size="16" x="27" y="115">W4</tspan><tspan font-size="16" x="0" y="144">M6</tspan><tspan font-size="16" x="22.1667" y="144">-</tspan><tspan font-size="16" x="27" y="144">W1</tspan><tspan fill="#000000" font-weight="400" font-size="16" x="111.059" y="144">Step 5 testing</tspan><tspan font-size="16" x="0" y="173">M6</tspan><tspan font-size="16" x="22.1667" y="173">-</tspan><tspan font-size="16" x="27" y="173">W2</tspan><tspan fill="#000000" font-weight="400" font-size="16" x="111.059" y="173">Step 5 completed</tspan><tspan font-size="16" x="0" y="202">M6</tspan><tspan font-size="16" x="22.1667" y="202">-</tspan><tspan font-size="16" x="27" y="202">W3</tspan><tspan fill="#000000" font-weight="400" font-size="16" x="111.059" y="202">Step 6</tspan><tspan fill="#000000" font-weight="400" font-size="16" x="403.765" y="202">Report draft 1</tspan><tspan font-size="16" x="0" y="230">M6</tspan><tspan font-size="16" x="22.1667" y="230">-</tspan><tspan font-size="16" x="27" y="230">W4</tspan><tspan fill="#000000" font-weight="400" font-size="16" x="111.059" y="230">Step 7 (build other services) begins</tspan><tspan font-size="16" x="0" y="259">M7</tspan><tspan font-size="16" x="22.1667" y="259">-</tspan><tspan font-size="16" x="27" y="259">W1</tspan><tspan font-size="16" x="0" y="288">M7</tspan><tspan font-size="16" x="22.1667" y="288">-</tspan><tspan font-size="16" x="27" y="288">W2</tspan><tspan font-size="16" x="0" y="317">M7</tspan><tspan font-size="16" x="22.1667" y="317">-</tspan><tspan font-size="16" x="27" y="317">W3</tspan><tspan font-size="16" x="0" y="346">M7</tspan><tspan font-size="16" x="22.1667" y="346">-</tspan><tspan font-size="16" x="27" y="346">W4</tspan><tspan font-size="16" x="0" y="374">M7</tspan><tspan font-size="16" x="22.1667" y="374">-</tspan><tspan font-size="16" x="27" y="374">W5</tspan><tspan fill="#000000" font-weight="400" font-size="16" x="111.059" y="374">Step 7 testing</tspan><tspan font-size="16" x="0" y="403">M8</tspan><tspan font-size="16" x="22.1667" y="403">-</tspan><tspan font-size="16" x="27" y="403">W1</tspan><tspan font-size="16" x="0" y="432">M8</tspan><tspan font-size="16" x="22.1667" y="432">-</tspan><tspan font-size="16" x="27" y="432">W2</tspan><tspan fill="#000000" font-weight="400" font-size="16" x="111.059" y="432">Step 7 completed</tspan><tspan fill="#000000" font-weight="400" font-size="16" x="403.765" y="432">Report draft 2</tspan><tspan font-size="16" x="0" y="461">M8</tspan><tspan font-size="16" x="22.1667" y="461">-</tspan><tspan font-size="16" x="27" y="461">W3</tspan><tspan fill="#000000" font-weight="400" font-size="16" x="111.059" y="461">Step 8</tspan><tspan font-size="16" x="0" y="490">M8</tspan><tspan font-size="16" x="22.1667" y="490">-</tspan><tspan font-size="16" x="27" y="490">W4</tspan><tspan fill="#000000" font-weight="400" font-size="16" x="111.059" y="490">Step 9 </tspan><tspan font-size="16" x="0" y="518">M9</tspan><tspan font-size="16" x="22.1667" y="518">-</tspan><tspan font-size="16" x="27" y="518">W1</tspan><tspan fill="#000000" font-weight="400" font-size="16" x="111.059" y="518">Buffer, in case of unexpected delay</tspan><tspan fill="#000000" font-weight="400" font-size="16" x="403.765" y="518">Report draft 3</tspan><tspan font-size="16" x="0" y="547">M9</tspan><tspan font-size="16" x="22.1667" y="547">-</tspan><tspan font-size="16" x="27" y="547">W2</tspan><tspan fill="#000000" font-weight="400" font-size="16" x="111.059" y="547">Buffer, in case of unexpected delay</tspan><tspan fill="#000000" font-weight="400" font-size="16" x="403.765" y="547">Minor revisions</tspan><tspan font-size="16" x="0" y="576">M9</tspan><tspan font-size="16" x="22.1667" y="576">-</tspan><tspan font-size="16" x="27" y="576">W3</tspan><tspan fill="#000000" font-weight="400" font-size="16" x="111.059" y="576">Buffer, in case of unexpected delay</tspan><tspan fill="#000000" font-weight="400" font-size="16" x="403.765" y="576">Minor revisions</tspan><tspan font-size="16" x="0" y="605">M9</tspan><tspan font-size="16" x="22.1667" y="605">-</tspan><tspan font-size="16" x="27" y="605">W4</tspan><tspan fill="#000000" font-weight="400" font-size="16" x="111.059" y="605">Buffer, in case of unexpected delay</tspan><tspan fill="#000000" font-weight="400" font-size="16" x="403.765" y="605">Minor revisions</tspan></text></g></svg>